<?xml version="1.0" standalone="no"?>
<svg viewBox="0 0 200 200" xmlns="http://www.w3.org/2000/svg">
  <path fill="#FF0066" d="M41.2,-63.6C54.5,-55.6,67,-46,76.4,-32.7C85.7,-19.5,92,-2.7,87.7,11.2C83.5,25.1,68.9,36,55.9,45.1C42.9,54.2,31.5,61.4,18.5,67.2C5.4,73,-9.3,77.4,-20.4,72.7C-31.4,67.9,-38.8,54,-44,41.7C-49.1,29.4,-52,18.6,-54.6,7.2C-57.1,-4.1,-59.4,-16.2,-57.8,-29.1C-56.1,-42,-50.4,-55.9,-40.1,-65.1C-29.9,-74.4,-14.9,-79.2,-0.5,-78.4C14,-77.7,28,-71.5,41.2,-63.6Z" transform="translate(100 100)" />
</svg>
