<svg id="visual" viewBox="0 0 900 600" width="900" height="600" xmlns="http://www.w3.org/2000/svg" xmlns:xlink="http://www.w3.org/1999/xlink" version="1.1"><g transform="translate(461.63124808588634 299.94543713772134)"><path d="M178.3 -216.3C230.1 -168.9 270.7 -111.9 281.4 -49.8C292 12.3 272.9 79.4 241.4 144.6C210 209.8 166.2 273.1 108.9 289.9C51.6 306.7 -19.2 276.9 -74.6 241.1C-130.1 205.3 -170.3 163.4 -216.8 111.3C-263.4 59.3 -316.3 -2.9 -306.4 -53.1C-296.4 -103.3 -223.5 -141.4 -162 -187.1C-100.4 -232.7 -50.2 -285.8 6.5 -293.6C63.2 -301.3 126.4 -263.7 178.3 -216.3" fill="#535353"></path></g></svg>